#!OML:ASF E:\Steps\Project 1\Capture day 1\Session 2\Subject.ASF
:FULLY-SPECIFIED
:DEGREES
486
root -1.01276 15.8472 -7.20145 -160.107 3.41354 179.009
lowerback -28.1459 -2.84454 -6.30419
upperback 0.895182 -1.19988 -0.531427
thorax 16.1765 -0.871757 2.4341
lowerneck 9.55564 1.6163 -3.55327
upperneck 8.9176 2.51427 10.8006
head 1.00812 1.67325 4.14944
rclavicle 1.98785e-014 -1.43125e-014
rhumerus -38.7368 -15.8284 -76.6077
rradius 42.3931
rwrist -8.13327
rhand -7.33275 -51.0812
rfingers 7.12502
rthumb 18.5508 -80.2166
lclavicle 1.98785e-014 -1.43125e-014
lhumerus -30.999 17.6408 74.1673
lradius 12.2224
lwrist -18.6346
lhand -19.057 -9.47283
lfingers 7.12502
lthumb 7.25009 20.383
rfemur -15.3017 8.62322 21.8882
rtibia 18.3931
rfoot -24.955 -6.46782
rtoes -29.92
lfemur -39.72 -13.2513 -11.7141
ltibia 16.7175
lfoot 2.35974 -2.18666
ltoes -37.5869
487
root -1.03024 15.8495 -7.29749 -160.05 3.4575 178.983
lowerback -28.2954 -2.91943 -6.42295
upperback 0.909112 -1.23868 -0.544592
thorax 16.2704 -0.897858 2.46564
lowerneck 9.26052 1.41635 -3.50486
upperneck 8.69842 2.22291 10.821
head 1.00998 1.51445 4.15578
rclavicle -1.0138e-014 -1.03368e-014
rhumerus -38.8332 -16.1954 -76.4051
rradius 41.5677
rwrist -8.014
rhand -8.20474 -51.48
rfingers 7.12502
rthumb 17.7118 -80.6933
lclavicle -1.0138e-014 -1.03368e-014
lhumerus -30.6778 17.2999 74.4245
lradius 12.3171
lwrist -18.0873
lhand -19.2392 -9.24672
lfingers 7.12502
lthumb 7.07425 20.6151
rfemur -15.2445 8.62554 21.8341
rtibia 18.7352
rfoot -24.4848 -6.7854
rtoes -31.6987
lfemur -39.6368 -13.2263 -11.9859
ltibia 17.1447
lfoot 2.13448 -2.19705
ltoes -37.6629
488
root -1.04961 15.8504 -7.39511 -159.998 3.48286 178.948
lowerback -28.4234 -2.96013 -6.42735
upperback 0.894057 -1.2567 -0.629942
thorax 16.3134 -0.89837 2.36489
lowerneck 9.41542 1.45492 -3.51142
upperneck 8.5525 2.28295 11.0161
head 0.927597 1.53987 4.2214
rclavicle -7.45443e-015 1.27222e-014
rhumerus -39.0007 -16.7016 -76.2237
rradius 40.7547
rwrist -7.70553
rhand -8.38979 -51.751
rfingers 7.12502
rthumb 17.5337 -80.9803
lclavicle -7.45443e-015 1.27222e-014
lhumerus -30.4534 16.8316 74.6299
lradius 12.5633
lwrist -17.5374
lhand -19.1708 -8.52165
lfingers 7.12502
lthumb 7.14026 21.3379
rfemur -15.1345 8.52373 21.753
rtibia 18.8144
rfoot -24.0113 -7.06954
rtoes -33.737
lfemur -39.5185 -13.2188 -12.2997
ltibia 17.5811
lfoot 1.67993 -2.51344
ltoes -37.4664
489
root -1.06818 15.8552 -7.493 -159.959 3.56661 178.897
lowerback -28.521 -2.97185 -6.43532
upperback 0.798464 -1.23201 -0.717591
thorax 16.2417 -0.872609 2.28309
lowerneck 9.80418 1.39118 -3.41862
upperneck 8.30966 2.22498 11.0725
head 0.785407 1.49936 4.21728
rclavicle -9.54166e-015 -4.77083e-015
rhumerus -39.3299 -17.1406 -75.9658
rradius 39.8599
rwrist -7.33323
rhand -7.99665 -52.0597
rfingers 7.12502
rthumb 17.9121 -81.2548
lclavicle -9.54166e-015 -4.77083e-015
lhumerus -30.24 16.5511 74.7129
lradius 12.5026
lwrist -17.3937
lhand -19.3552 -8.45533
lfingers 7.12502
lthumb 6.96228 21.4102
rfemur -15.1519 8.33368 21.6329
rtibia 19.3719
rfoot -23.8953 -7.04494
rtoes -34.1451
lfemur -39.3532 -13.1794 -12.6291
ltibia 17.9871
lfoot 1.22584 -2.80156
ltoes -37.5748
490
root -1.08559 15.8642 -7.58432 -159.866 3.64821 178.81
lowerback -28.5956 -3.00899 -6.55471
upperback 0.688672 -1.20881 -0.775988
thorax 16.1445 -0.856311 2.29415
lowerneck 9.92906 1.3917 -3.44642
upperneck 8.17811 2.22965 11.1957
head 0.718035 1.49488 4.26406
rclavicle 1.43125e-014 4.37326e-014
rhumerus -39.7381 -17.542 -75.6237
rradius 39.0462
rwrist -6.93961
rhand -7.90006 -52.7256
rfingers 7.12502
rthumb 18.005 -81.9122
lclavicle 1.43125e-014 4.37326e-014
lhumerus -30.0449 16.1785 74.8657
lradius 12.5398
lwrist -17.2166
lhand -19.5281 -8.82357
lfingers 7.12502
lthumb 6.79533 21.0474
rfemur -15.4996 8.11417 21.5031
rtibia 20.826
rfoot -24.1078 -6.7572
rtoes -32.4041
lfemur -39.2152 -13.0801 -12.9788
ltibia 18.2938
lfoot 0.860149 -3.03115
ltoes -37.7502
491
root -1.10389 15.8742 -7.67135 -159.817 3.84708 178.577
lowerback -28.5715 -3.04901 -6.81791
upperback 0.601668 -1.14012 -0.889471
thorax 16.0235 -0.829426 2.34262
lowerneck 10.0065 1.45454 -3.47801
upperneck 7.96477 2.31915 11.4589
head 0.62251 1.531 4.3589
rclavicle -1.09332e-015 4.77083e-015
rhumerus -40.1383 -18.0621 -75.2509
rradius 38.2345
rwrist -6.404
rhand -7.69362 -53.2185
rfingers 7.12502
rthumb 18.2036 -82.3867
lclavicle -1.09332e-015 4.77083e-015
lhumerus -29.9807 15.8948 74.9676
lradius 12.9011
lwrist -17.0437
lhand -19.4055 -8.78439
lfingers 7.12502
lthumb 6.91372 21.0827
rfemur -15.9343 8.26014 21.1259
rtibia 21.9382
rfoot -24.1566 -7.03523
rtoes -34.1481
lfemur -38.9161 -12.9732 -13.5273
ltibia 18.4098
lfoot 0.530122 -3.18823
ltoes -37.8115
492
root -1.11954 15.8871 -7.7572 -159.733 4.14503 178.425
lowerback -28.6612 -3.06851 -7.05363
upperback 0.574387 -1.05635 -0.953792
thorax 16.0272 -0.803031 2.43261
lowerneck 9.37403 1.45695 -3.88493
upperneck 8.2219 2.26475 12.1396
head 0.807286 1.52659 4.7032
rclavicle 1.41137e-014 -1.74931e-014
rhumerus -40.0969 -18.7768 -74.8411
rradius 36.8388
rwrist -5.70229
rhand -7.51732 -52.8113
rfingers 7.12502
rthumb 18.3732 -81.9636
lclavicle 1.41137e-014 -1.74931e-014
lhumerus -29.7553 16.0061 75.0002
lradius 13.1207
lwrist -17.102
lhand -19.254 -8.4898
lfingers 7.12502
lthumb 7.05999 21.3725
rfemur -16.505 8.31284 20.8294
rtibia 23.3816
rfoot -24.216 -7.00204
rtoes -34.0803
lfemur -38.6068 -12.7097 -13.9806
ltibia 18.4848
lfoot 0.194142 -3.29348
ltoes -37.7345
493
root -1.13555 15.9025 -7.84607 -159.607 4.34688 178.549
lowerback -28.8291 -3.03019 -7.01483
upperback 0.564818 -1.0047 -0.930754
thorax 16.0913 -0.778365 2.45495
lowerneck 9.35067 1.14114 -3.83404
upperneck 8.06155 1.82404 11.8215
head 0.802169 1.28606 4.58787
rclavicle 1.02374e-014 1.66979e-014
rhumerus -40.6563 -19.1205 -74.5782
rradius 36.6222
rwrist -5.3073
rhand -7.53931 -53.0733
rfingers 7.12502
rthumb 18.3521 -82.2276
lclavicle 1.02374e-014 1.66979e-014
lhumerus -29.3408 15.8005 75.2245
lradius 13.1646
lwrist -16.8207
lhand -19.0846 -8.08683
lfingers 7.12502
lthumb 7.22351 21.7699
rfemur -17.0392 8.06494 20.8922
rtibia 24.8075
rfoot -24.039 -6.93596
rtoes -34.8177
lfemur -38.3043 -12.2538 -14.159
ltibia 18.5257
lfoot -0.0362622 -3.46665
ltoes -36.7585
494
root -1.15327 15.9162 -7.93016 -159.4 4.55563 178.743
lowerback -28.9841 -2.93927 -6.85635
upperback 0.493794 -0.920097 -0.924576
thorax 16.0715 -0.72299 2.40901
lowerneck 9.26188 1.13615 -4.07058
upperneck 8.10162 1.76435 12.7014
head 0.69627 1.27351 4.47581
rclavicle -6.65929e-015 9.54166e-015
rhumerus -40.8213 -20.0262 -74.0679
rradius 35.4886
rwrist -4.24563
rhand -6.76799 -53.8407
rfingers 7.12502
rthumb 19.0939 -82.9235
lclavicle -6.65929e-015 9.54166e-015
lhumerus -28.9429 15.2736 75.5619
lradius 13.3144
lwrist -16.1931
lhand -19.0472 -8.2466
lfingers 7.12502
lthumb 7.25955 21.6089
rfemur -17.7549 7.67088 21.0104
rtibia 26.2878
rfoot -23.7288 -6.75299
rtoes -36.0934
lfemur -38.0434 -11.7732 -14.2299
ltibia 18.3846
lfoot -0.125093 -3.634
ltoes -35.7817
